<svg xmlns="http://www.w3.org/2000/svg" viewBox="0 0 100 117" width="100" height="117">
  <defs>
    <linearGradient id="k" x1="0" y1="0" x2="1" y2="1"><stop offset="0" stop-color="#B6ECFC"/><stop offset="1" stop-color="#7FDCF8"/></linearGradient>
    <linearGradient id="s" x1="0" y1="1" x2="1" y2="0"><stop offset="0" stop-color="#46B8FA"/><stop offset="1" stop-color="#1478E6"/></linearGradient>
  </defs>
  <path d="M50 5 C72 5 88 9 96.5 14 C96.5 41 94.5 72 82 90.5 C72 105 60 111 50 114 C40 111 28 105 18 90.5 C5.5 72 3.5 41 3.5 14 C12 9 28 5 50 5 Z" fill="none" stroke="#BE6E46" stroke-width="5.2" stroke-linejoin="round"/>
  <path d="M37 31 C26.5 31 19 40.5 19 53.5 C19 66.5 26.5 76 37 76 C41 76 43 72.5 41 69 C37.5 63 36.5 58 36.5 53.5 C36.5 49 37.5 44 41 38 C43 34.5 41 31 37 31 Z" fill="url(#k)"/>
  <path d="M48 67 L48 75" stroke="#2FA6DE" stroke-width="5.5" stroke-linecap="round" fill="none"/>
  <ellipse cx="48" cy="83" rx="15.5" ry="8.5" fill="#14AADC"/>
  <path d="M48 91 L48 99" stroke="#2FA6DE" stroke-width="5.5" stroke-linecap="round" fill="none"/>
  <circle cx="48" cy="55" r="12.5" fill="none" stroke="url(#s)" stroke-width="6.5"/>
  <path d="M58.5 75.5 C72 73.5 81.5 63.5 81 51.5 C80.5 40 72 32.5 63 32.5" fill="none" stroke="url(#s)" stroke-width="6.5" stroke-linecap="round"/>
  <path d="M63 32.5 C69 29 75 26 80.5 24" fill="none" stroke="url(#s)" stroke-width="6.5" stroke-linecap="round"/>
  <path d="M88 20.5 L75 22.5 L82.5 31 Z" fill="#1478E6"/>
</svg>
